<svg width="16" height="16" viewBox="0 0 16 16" fill="none" xmlns="http://www.w3.org/2000/svg">
<g clip-path="url(#clip0_3024_1998)">
<path d="M7.33337 12H8.66671V10.6667H7.33337V12ZM8.00004 1.33334C4.32004 1.33334 1.33337 4.32001 1.33337 8.00001C1.33337 11.68 4.32004 14.6667 8.00004 14.6667C11.68 14.6667 14.6667 11.68 14.6667 8.00001C14.6667 4.32001 11.68 1.33334 8.00004 1.33334ZM8.00004 13.3333C5.06004 13.3333 2.66671 10.94 2.66671 8.00001C2.66671 5.06001 5.06004 2.66668 8.00004 2.66668C10.94 2.66668 13.3334 5.06001 13.3334 8.00001C13.3334 10.94 10.94 13.3333 8.00004 13.3333ZM8.00004 4.00001C6.52671 4.00001 5.33337 5.19334 5.33337 6.66668H6.66671C6.66671 5.93334 7.26671 5.33334 8.00004 5.33334C8.73337 5.33334 9.33337 5.93334 9.33337 6.66668C9.33337 8.00001 7.33337 7.83334 7.33337 10H8.66671C8.66671 8.50001 10.6667 8.33334 10.6667 6.66668C10.6667 5.19334 9.47337 4.00001 8.00004 4.00001Z" fill="#98A2B3"/>
</g>
<defs>
<clipPath id="clip0_3024_1998">
<rect width="16" height="16" fill="white"/>
</clipPath>
</defs>
</svg>
